<?xml version="1.0" encoding="utf-8"?>
<!-- Generator: Adobe Illustrator 24.0.1, SVG Export Plug-In . SVG Version: 6.00 Build 0)  -->
<svg version="1.1" id="Layer_1" xmlns="http://www.w3.org/2000/svg" xmlns:xlink="http://www.w3.org/1999/xlink" x="0px" y="0px"
	 viewBox="0 0 3000 2000" style="enable-background:new 0 0 3000 2000;" xml:space="preserve">
<style type="text/css">
	.st0{fill:#1B75BC;}
	.st1{fill:#808285;}
	.st2{fill:#BCBEC0;}
	.st3{fill-rule:evenodd;clip-rule:evenodd;fill:#1B75BC;}
	.st4{fill-rule:evenodd;clip-rule:evenodd;fill:#808285;}
</style>
<g>
	<path class="st0" d="M800.37,1454.33c0,12.28-2.91,22.17-8.74,29.65c-5.83,7.49-13.15,13.25-21.96,17.3
		c-8.82,4.04-18.52,6.67-29.13,7.86c-10.61,1.2-20.69,1.8-30.25,1.8h-89.18v-314.03h89.18c9.56,0,19.64,0.6,30.25,1.8
		c10.61,1.2,20.31,3.82,29.13,7.86c8.81,4.04,16.13,9.81,21.96,17.3c5.83,7.49,8.74,17.37,8.74,29.65V1454.33z M688.5,1466.01h22.01
		c8.09,0,13.85-1.35,17.3-4.04c3.44-2.7,5.17-7.93,5.17-15.72v-181.05c0-7.48-1.73-12.58-5.17-15.27c-3.45-2.7-9.21-4.04-17.3-4.04
		H688.5V1466.01z"/>
	<path class="st0" d="M819.68,1257.56c0-14.38,4.42-26.43,13.25-36.16c8.83-9.73,19.91-17.07,33.24-22.01
		c13.32-4.94,27.7-7.56,43.13-7.86c15.42-0.29,29.8,1.95,43.13,6.74c13.32,4.79,24.48,11.98,33.47,21.56
		c8.98,9.59,13.48,21.72,13.48,36.39v191.38c0,14.68-4.49,26.81-13.48,36.39c-8.98,9.59-20.15,16.78-33.47,21.56
		c-13.33,4.79-27.71,7.11-43.13,6.96c-15.43-0.15-29.8-2.7-43.13-7.64c-13.33-4.94-24.41-12.28-33.24-22.01
		c-8.84-9.73-13.25-21.79-13.25-36.17V1257.56z M887.07,1438.16c0,7.49,2.34,13.18,7.03,17.07c4.69,3.9,9.83,5.84,15.43,5.84
		c5.59,0,10.74-1.87,15.43-5.62c4.69-3.74,7.03-9.66,7.03-17.75v-168.02c0-7.79-2.34-13.63-7.03-17.52
		c-4.69-3.89-9.83-5.76-15.43-5.62c-5.6,0.15-10.74,2.18-15.43,6.07c-4.69,3.9-7.03,9.59-7.03,17.07V1438.16z"/>
	<path class="st0" d="M1131.45,1510.93v-62c0-14.67-3.22-24.63-9.66-29.88c-6.44-5.24-18.19-7.71-35.27-7.41v99.28h-68.29v-314.03
		h90.52c9.6,0,19.66,0.6,30.17,1.8c10.51,1.2,20.2,3.82,29.05,7.86c8.86,4.04,16.22,9.74,22.07,17.07
		c5.85,7.34,8.78,17.3,8.78,29.88v94.79c0,7.79-1.66,15.35-4.98,22.69c-3.31,7.34-9.34,11.76-18.09,13.25
		c2.71,1.2,5.5,2.77,8.37,4.72c2.86,1.95,5.35,4.72,7.46,8.31c2.11,3.59,3.84,8.24,5.2,13.93c1.35,5.69,2.04,12.73,2.04,21.11v78.62
		H1131.45z M1131.45,1272.38c0-8.68-1.8-14.75-5.39-18.19c-3.59-3.44-9.43-5.17-17.52-5.17h-22.01V1351
		c29.95,0,44.92-8.83,44.92-26.51V1272.38z"/>
	<path class="st0" d="M1381.93,1483.08c-8.82,9.59-19.87,16.92-33.16,22.01c-13.29,5.1-27.63,7.71-43.02,7.86
		c-15.39,0.15-29.73-2.1-43.02-6.74c-13.29-4.64-24.43-11.68-33.38-21.12c-8.96-9.43-13.44-21.49-13.44-36.16v-57.5h67.39v43.58
		c0,7.79,2.3,13.55,6.89,17.3c4.59,3.75,9.71,5.62,15.34,5.62c5.63,0,10.75-1.94,15.34-5.84c4.59-3.89,6.89-9.58,6.89-17.07v-16.62
		v-20.22c-1.2-4.19-3.07-7.56-5.62-10.11c-2.55-2.54-7.27-5.17-14.15-7.86c-7.79-3.29-17.07-7.41-27.85-12.35
		c-10.78-4.94-20.97-10.48-30.55-16.62c-9.59-6.14-17.75-12.73-24.48-19.77c-6.74-7.03-9.81-14.3-9.21-21.79v-52.11
		c0-14.38,4.4-26.43,13.22-36.16c8.82-9.73,19.87-17.07,33.16-22.01c13.3-4.94,27.64-7.56,43.02-7.86
		c15.39-0.29,29.73,1.95,43.02,6.74c13.3,4.79,24.34,11.98,33.16,21.56c8.81,9.59,13.36,21.72,13.67,36.39v57.5h-67.39v-40.88
		c0-7.78-2.3-13.63-6.89-17.52c-4.6-3.89-9.72-5.76-15.34-5.62c-5.64,0.15-10.75,2.18-15.34,6.06c-4.6,3.9-6.89,9.59-6.89,17.07
		v18.87c-1.5,7.49,0.28,13.93,5.33,19.32c5.05,5.39,11.74,10.26,20.07,14.6c8.32,4.34,17.53,8.54,27.63,12.58s19.54,8.61,28.3,13.7
		c8.76,5.1,16.04,11.01,21.84,17.75c5.79,6.74,8.69,15.05,8.69,24.93v52.56C1395.15,1461.52,1390.75,1473.5,1381.93,1483.08z"/>
	<path class="st0" d="M1546.1,1510.93h-132.53v-314.03h132.53v49.87h-66.04v74.58h43.58v54.36h-43.58v85.81h66.04V1510.93z"/>
	<path class="st0" d="M1609.89,1510.48v-264.16h-44.48v-49.42h154.99v49.42h-43.13v264.16H1609.89z"/>
	<path class="st1" d="M1921.21,1344.71c0,12.28-2.92,22.17-8.76,29.65c-5.84,7.49-13.18,13.18-22.01,17.07
		c-8.84,3.9-18.57,6.44-29.2,7.64c-10.63,1.2-20.74,1.8-30.32,1.8h-22.01v109.62h-68.29v-313.58h90.3c9.58,0,19.69,0.6,30.32,1.8
		c10.63,1.2,20.36,3.67,29.2,7.41c8.83,3.75,16.17,9.29,22.01,16.62c5.84,7.34,8.76,17.3,8.76,29.88v88.95V1344.71z
		 M1830.91,1351.45c8.38,0,14.15-1.72,17.3-5.17c3.15-3.44,4.72-9.5,4.72-18.19v-63.34c0-8.68-1.57-14.6-4.72-17.75
		c-3.14-3.14-8.91-4.72-17.3-4.72h-22.01v109.17H1830.91z"/>
	<path class="st1" d="M2005.67,1461.52l-8.09,49.42h-66.49l66.49-314.03h66.04l66.49,314.03h-66.49l-8.54-49.42H2005.67z
		 M2047.45,1418.39l-16.62-101.98l-17.52,101.98H2047.45z"/>
	<path class="st1" d="M2163.35,1510.48l-0.9-75.02l-73.68-238.55h66.94l39.98,157.24l41.33-157.24h67.39l-74.58,238.55v75.02
		H2163.35z"/>
</g>
<g>
	<path class="st2" d="M719.18,1557.58l-12.16,16.21h-1.39l-11.89-16.26v27.14h-7.04v-37.32h8.1l11.68,16.05l11.68-16.05h8.05v37.32
		h-7.04V1557.58z"/>
	<path class="st2" d="M776.65,1584.61h-27.94c0-12.42,0-24.9,0-37.32h27.94v6.82h-20.95v8.58h20.21v6.56h-20.21v8.42h20.95V1584.61z
		"/>
	<path class="st2" d="M825.91,1584.61h-27.94c0-12.42,0-24.9,0-37.32h27.94v6.82h-20.95v8.58h20.21v6.56h-20.21v8.42h20.95V1584.61z
		"/>
	<path class="st2" d="M859.17,1553.69h-11.84v-6.4c10.77,0,19.89,0,30.71,0v6.4h-11.84v30.92h-7.04V1553.69z"/>
	<path class="st2" d="M898.35,1584.61v-37.32h6.98v37.32H898.35z"/>
	<path class="st2" d="M952.46,1547.24h7.04v37.37h-4.37v0.05l-19.62-25.22v25.16h-7.04v-37.32h5.7l18.29,23.14V1547.24z"/>
	<path class="st2" d="M1009.66,1556.41c-2.51-2.4-6.24-3.73-9.49-3.73c-8,0-12.85,6.08-12.85,13.76c0,6.13,3.57,12.47,12.85,12.47
		c2.93,0,5.49-0.64,8.42-2.99v-6.61h-9.54v-6.29h15.99v15.73c-3.68,4.21-8.32,6.72-14.88,6.72c-14.02,0-19.73-9.22-19.73-19.03
		c0-10.5,6.56-20.21,19.73-20.21c5.01,0,10.02,1.92,13.86,5.71L1009.66,1556.41z"/>
	<path class="st2" d="M1079.28,1562.7l9.92-15.41h8.48v0.32l-14.87,21.59v15.41h-7.04v-15.41l-14.34-21.59v-0.32h8.37
		L1079.28,1562.7z"/>
	<path class="st2" d="M1153.44,1566.17c-0.11,9.65-6.02,19.3-19.14,19.3s-19.19-9.44-19.19-19.25s6.29-19.67,19.19-19.67
		C1147.15,1546.54,1153.55,1556.41,1153.44,1566.17z M1122.04,1566.32c0.16,6.13,3.47,12.69,12.26,12.69s12.1-6.61,12.21-12.74
		c0.11-6.29-3.41-13.33-12.21-13.33S1121.88,1560.03,1122.04,1566.32z"/>
	<path class="st2" d="M1207.33,1547.34v21.38c0,11.04-6.77,16.69-16.15,16.69c-8.96,0-16.58-5.44-16.58-16.69v-21.38h6.98v21.38
		c0,6.72,3.84,10.29,9.65,10.29c5.81,0,9.12-3.89,9.12-10.29v-21.38H1207.33z"/>
	<path class="st2" d="M1283.46,1577.57h-19.51l-3.2,7.04h-7.62l16.74-37.32h7.68l16.74,37.32h-7.68L1283.46,1577.57z
		 M1273.7,1555.13l-6.93,15.89h13.86L1273.7,1555.13z"/>
	<path class="st2" d="M1316.99,1553.69h-11.84v-6.4c10.77,0,19.89,0,30.71,0v6.4h-11.84v30.92h-7.04V1553.69z"/>
	<path class="st2" d="M1398.61,1562.7l9.92-15.41h8.48v0.32l-14.87,21.59v15.41h-7.04v-15.41l-14.34-21.59v-0.32h8.37
		L1398.61,1562.7z"/>
	<path class="st2" d="M1472.76,1566.17c-0.11,9.65-6.02,19.3-19.14,19.3s-19.19-9.44-19.19-19.25s6.29-19.67,19.19-19.67
		C1466.47,1546.54,1472.87,1556.41,1472.76,1566.17z M1441.36,1566.32c0.16,6.13,3.47,12.69,12.26,12.69s12.1-6.61,12.21-12.74
		c0.11-6.29-3.41-13.33-12.21-13.33S1441.2,1560.03,1441.36,1566.32z"/>
	<path class="st2" d="M1526.66,1547.34v21.38c0,11.04-6.77,16.69-16.15,16.69c-8.96,0-16.58-5.44-16.58-16.69v-21.38h6.98v21.38
		c0,6.72,3.84,10.29,9.65,10.29c5.81,0,9.12-3.89,9.12-10.29v-21.38H1526.66z"/>
	<path class="st2" d="M1582.63,1584.61h-8.37l-10.88-12.48h-6.77v12.48h-7.04v-37.37c5.92,0,11.84,0.05,17.75,0.05
		c8.8,0.05,13.44,5.92,13.44,12.37c0,5.12-2.35,10.29-9.44,11.73l11.3,12.74V1584.61z M1556.62,1553.85v11.94h10.72
		c4.48,0,6.4-2.99,6.4-5.97s-1.97-5.97-6.4-5.97H1556.62z"/>
	<path class="st2" d="M1645.86,1573.63h-10.56v10.98h-7.04v-37.32c5.86,0,11.73-0.05,17.59-0.05
		C1664.09,1547.24,1664.14,1573.63,1645.86,1573.63z M1635.3,1567.18h10.56c9.01,0,8.96-13.22,0-13.22h-10.56V1567.18z"/>
	<path class="st2" d="M1716.97,1566.17c-0.11,9.65-6.03,19.3-19.14,19.3s-19.19-9.44-19.19-19.25s6.29-19.67,19.19-19.67
		C1710.68,1546.54,1717.08,1556.41,1716.97,1566.17z M1685.57,1566.32c0.16,6.13,3.46,12.69,12.26,12.69s12.1-6.61,12.21-12.74
		c0.11-6.29-3.41-13.33-12.21-13.33S1685.41,1560.03,1685.57,1566.32z"/>
	<path class="st2" d="M1738.19,1584.61v-37.32h6.98v37.32H1738.19z"/>
	<path class="st2" d="M1792.3,1547.24h7.04v37.37h-4.37v0.05l-19.62-25.22v25.16h-7.04v-37.32h5.71l18.29,23.14V1547.24z"/>
	<path class="st2" d="M1831.43,1553.69h-11.84v-6.4c10.77,0,19.89,0,30.71,0v6.4h-11.84v30.92h-7.04V1553.69z"/>
	<path class="st2" d="M1934,1566.17c-0.11,9.65-6.03,19.3-19.14,19.3s-19.19-9.44-19.19-19.25s6.29-19.67,19.19-19.67
		C1927.71,1546.54,1934.1,1556.41,1934,1566.17z M1902.59,1566.32c0.16,6.13,3.46,12.69,12.26,12.69s12.1-6.61,12.21-12.74
		c0.11-6.29-3.41-13.33-12.21-13.33S1902.43,1560.03,1902.59,1566.32z"/>
	<path class="st2" d="M1955.16,1584.61v-37.27h26.82v6.77h-19.78v10.18h18.71v6.5h-18.71v13.81H1955.16z"/>
	<path class="st2" d="M2054.1,1547.24h7.04v37.37h-4.37v0.05l-19.62-25.22v25.16h-7.04v-37.32h5.71l18.29,23.14V1547.24z"/>
	<path class="st2" d="M2111.41,1584.61h-27.94c0-12.42,0-24.9,0-37.32h27.94v6.82h-20.95v8.58h20.21v6.56h-20.21v8.42h20.95V1584.61
		z"/>
	<path class="st2" d="M2160.67,1584.61h-27.94c0-12.42,0-24.9,0-37.32h27.94v6.82h-20.95v8.58h20.21v6.56h-20.21v8.42h20.95V1584.61
		z"/>
	<path class="st2" d="M2214.94,1565.63c0.16,9.44-5.6,18.98-18.66,18.98c-4.58,0-10.08,0-14.66,0v-37.32c4.58,0,10.08,0,14.66,0
		C2209.07,1547.29,2214.78,1556.41,2214.94,1565.63z M2188.6,1577.84h7.68c8.48,0,11.84-6.18,11.68-12.26
		c-0.16-5.81-3.57-11.62-11.68-11.62h-7.68V1577.84z"/>
</g>
<g>
	<g>
		<path class="st3" d="M1613.13,918.99c0,73.97,0,147.14,0,220.56c-45.58,0-90.85,0-136.6,0c0-1.42,0-2.7,0-3.99
			c0-74.54-0.01-149.09,0.06-223.64c0-1.68,0.47-3.64,1.4-5c31.75-46.89,63.36-93.87,95.53-140.47
			c11.22-16.25,23.83-31.53,35.82-47.25c0.35-0.46,0.75-0.87,1.81-2.11c-0.15,2.85-0.27,4.81-0.36,6.76
			c-1.52,30.78,3.58,60.11,20.25,86.52c17.9,28.37,43.83,45.09,76.81,50.87c25.85,4.53,50.99,1.91,74.86-9.09
			c31.96-14.73,52.17-39.96,61.75-73.37c10.16-35.42,9.41-70.88-4.85-105.15c-15.64-37.57-44.11-60.43-83.98-68.41
			c-25.39-5.08-49.19,0.23-71.5,13.21c-21.47,12.49-39.94,28.62-57.08,46.36c-34.81,36.02-64.43,76.2-92.62,117.41
			c-33.4,48.83-66,98.2-99.18,147.17c-28.67,42.32-58.25,83.99-91.79,122.69c-18.27,21.08-37.48,41.32-59.59,58.39
			c-19.15,14.78-39.83,27.16-63.87,32.56c-8.42,1.89-16.85,2.84-25.67,2.16c-8.44-0.65-17.05,1.23-25.59,1.36
			c-65.38,0.94-123.53-17.94-171.33-63.91c-30.75-29.57-50.2-65.83-60.84-106.94c-7.98-30.85-10.25-62.24-7.9-93.94
			c2.85-38.44,12.58-74.97,32.14-108.43c31.28-53.49,77.45-87.65,137.2-103.02c45.34-11.67,90.82-11.97,135.77,2.67
			c26.28,8.56,48.91,23.03,67.82,43.25c0.56,0.6,1.13,1.2,2.26,2.42c0-73.95,0-147.15,0-220.63c45.59,0,90.76,0,136.53,0
			c0,1.17,0,2.44,0,3.7c0,73.94,0.01,147.89-0.06,221.83c0,1.81-0.46,3.87-1.4,5.4c-26.06,42.8-51.99,85.68-78.43,128.24
			c-16.79,27.03-34.9,53.2-54.93,77.98c-0.51,0.63-1.09,1.2-2.33,2.55c3.17-14.79,3.83-28.83,3.02-42.88
			c-2.1-36.22-13.72-68.37-41.75-92.92c-18.34-16.07-40.02-24.64-64.19-26.99c-26.33-2.55-51.45,1.5-74.61,14.74
			c-27.45,15.69-44.93,39.4-53.27,69.59c-10.7,38.73-9.27,77.01,9.11,113.27c18.16,35.83,48.32,55.56,87.95,61.03
			c36.91,5.09,69.18-5.8,98.19-28.3c26.54-20.58,48.29-45.66,68.37-72.31c27.82-36.9,51.96-76.22,76.03-115.6
			c24-39.26,47.81-78.64,72.27-117.61c22.18-35.34,46.18-69.44,73.22-101.29c19.87-23.41,41.68-44.74,65.76-63.92
			c16.57-13.2,34.04-24.31,53.95-31.59c29.46-10.77,59.81-13.96,91.01-11.86c25.65,1.73,50.64,6.18,74.68,15.34
			c55.52,21.14,96.21,58.52,121.91,112.07c11.75,24.5,18.78,50.42,21.95,77.4c4.96,42.18,2.3,83.73-11.03,124.24
			c-15.68,47.64-43.61,86.4-85.15,114.89c-27.51,18.87-57.96,30.61-90.79,36.34c-20.76,3.62-41.65,4.87-62.66,3.45
			c-43.18-2.92-82.29-16.08-114.46-46.28C1619.7,925.62,1616.78,922.6,1613.13,918.99z"/>
	</g>
	<g>
		<path class="st4" d="M1439.93,1139.13c-1.95,0.09-3.62,0.24-5.29,0.25c-40.15,0.02-80.29,0.01-120.44,0.09
			c-2.83,0.01-3.83-0.9-3.71-3.73c0.22-5.54-1.32-11.71,0.65-16.45c1.91-4.57,7.3-7.69,11.23-11.39
			c25.26-23.76,47.82-49.96,68.73-77.54c15.71-20.73,30.72-42,46.04-63.02c0.77-1.06,1.57-2.09,2.78-3.7
			C1439.93,1022.41,1439.93,1080.52,1439.93,1139.13z"/>
	</g>
	<g>
		<path class="st4" d="M1477.24,668.11c-0.14-2.06-0.3-3.34-0.3-4.63c0-53.41,0.01-106.82,0.02-160.23c0-5.27-0.01-5.29,5.34-5.29
			c40.15-0.01,80.3,0.04,120.45-0.09c3.34-0.01,4.1,1.09,3.96,4.14c-0.25,5.53,1.41,11.8-0.7,16.41
			c-2.04,4.45-7.83,7.16-11.94,10.68c-22.22,19.02-42.17,40.22-60.72,62.8c-19.14,23.3-36.83,47.65-53.51,72.75
			C1479.19,665.63,1478.43,666.53,1477.24,668.11z"/>
	</g>
</g>
</svg>
